<?xml version="1.0" encoding="UTF-8"?>
<svg id="Layer_1" xmlns="http://www.w3.org/2000/svg" xmlns:xlink="http://www.w3.org/1999/xlink" version="1.1" viewBox="0 0 1440 967.4">
  <!-- Generator: Adobe Illustrator 29.1.0, SVG Export Plug-In . SVG Version: 2.1.0 Build 142)  -->
  <defs>
    <style>
      .st0, .st1, .st2 {
        fill: none;
      }

      .st3 {
        mask: url(#mask);
      }

      .st4 {
        fill: url(#linear-gradient2);
      }

      .st5 {
        fill: url(#linear-gradient3);
      }

      .st6 {
        fill: url(#linear-gradient8);
      }

      .st7 {
        fill: url(#linear-gradient7);
      }

      .st8 {
        fill: url(#linear-gradient5);
      }

      .st9 {
        fill: url(#linear-gradient4);
      }

      .st10 {
        fill: #e6e6e6;
      }

      .st11 {
        fill: url(#linear-gradient);
      }

      .st12 {
        fill: #f49494;
      }

      .st13 {
        fill: #4d4d4d;
      }

      .st14, .st15, .st16, .st17 {
        isolation: isolate;
      }

      .st18 {
        fill: url(#Unnamed_Pattern_2);
      }

      .st15 {
        fill: url(#radial-gradient);
        mix-blend-mode: multiply;
        opacity: .4;
      }

      .st19 {
        clip-path: url(#clippath-1);
      }

      .st1 {
        stroke-width: .5px;
      }

      .st1, .st20 {
        stroke: #fff;
        stroke-miterlimit: 10;
      }

      .st21 {
        fill: #fff;
      }

      .st22 {
        fill: #666;
      }

      .st20 {
        stroke-width: 9.2px;
      }

      .st20, .st23 {
        fill: #f2f2f2;
      }

      .st2 {
        stroke: #ccc;
        stroke-linecap: square;
        stroke-width: 4px;
      }

      .st24 {
        opacity: .6;
      }

      .st25 {
        fill: url(#Unnamed_Pattern_2-5);
      }

      .st16 {
        fill: url(#linear-gradient6);
      }

      .st16, .st17 {
        opacity: .2;
      }

      .st17 {
        fill: url(#linear-gradient1);
      }

      .st26 {
        clip-path: url(#clippath);
      }
    </style>
    <linearGradient id="linear-gradient" x1="-238.7" y1="179.2" x2="-237.4" y2="179.2" gradientTransform="translate(133238.9 100340.7) scale(556.6 -556.6)" gradientUnits="userSpaceOnUse">
      <stop offset="0" stop-color="#fafafa"/>
      <stop offset=".2" stop-color="#f6f6f6"/>
      <stop offset=".5" stop-color="#eaeaea"/>
      <stop offset=".5" stop-color="#e7e7e7"/>
      <stop offset=".6" stop-color="#ebebeb"/>
      <stop offset=".8" stop-color="#f5f5f5"/>
      <stop offset="1" stop-color="#f8f8f8"/>
    </linearGradient>
    <clipPath id="clippath">
      <rect class="st0" x="0" y="0" width="109.1" height="103.2"/>
    </clipPath>
    <pattern id="Unnamed_Pattern_2" data-name="Unnamed Pattern 2" x="0" y="0" width="109.1" height="103.2" patternTransform="translate(4234.7 -16999.4) scale(1.2)" patternUnits="userSpaceOnUse" viewBox="0 0 109.1 103.2">
      <g>
        <rect class="st0" width="109.1" height="103.2"/>
        <rect class="st0" x="0" y="0" width="109.1" height="103.2"/>
        <g class="st26">
          <g>
            <path class="st2" d="M218.3,96.5c-4.6,0-9.2-.7-13.6-2.1-4.4-1.4-9-2.1-13.6-2.2-4.6,0-9.2.7-13.6,2.1-8.9,2.8-18.4,2.8-27.3,0-4.4-1.4-9-2.1-13.7-2.1-4.6,0-9.2.7-13.6,2.1-4.4,1.4-9,2.1-13.6,2.1"/>
            <path class="st2" d="M218.3,105.1c-4.6,0-9.2-.7-13.6-2.1-4.4-1.4-9-2.1-13.6-2.1-4.6,0-9.2.7-13.7,2.1-8.9,2.8-18.4,2.8-27.3,0-4.4-1.4-9-2.1-13.6-2.1-4.6,0-9.2.7-13.6,2.1-4.4,1.4-9,2.1-13.6,2.1"/>
            <rect class="st10" x="0" y="90.3" width="109.1" height="25.8"/>
            <path class="st2" d="M109.1,96.5c-4.6,0-9.2-.7-13.6-2.1-4.4-1.4-9-2.1-13.6-2.2-4.6,0-9.2.8-13.6,2.2-4.4,1.4-9,2.1-13.6,2.1-4.6,0-9.2-.7-13.6-2.1-4.4-1.4-9-2.1-13.6-2.2-4.6,0-9.2.8-13.6,2.2-4.4,1.4-9,2.1-13.6,2.1"/>
            <path class="st2" d="M109.1,105.1c-4.6,0-9.2-.7-13.6-2.1-4.4-1.4-9-2.1-13.6-2.1-4.6,0-9.2.7-13.6,2.1-4.4,1.4-9,2.1-13.6,2.1-4.6,0-9.2-.7-13.6-2.1-4.4-1.4-9-2.1-13.6-2.1-4.6,0-9.2.7-13.6,2.1-4.4,1.4-9,2.1-13.6,2.1"/>
            <path class="st2" d="M0,96.5c-4.6,0-9.2-.7-13.6-2.1-4.4-1.4-9-2.1-13.6-2.2-4.6,0-9.2.8-13.6,2.2-4.4,1.4-9,2.1-13.6,2.1-4.6,0-9.2-.7-13.6-2.1-4.4-1.4-9-2.1-13.6-2.2-4.6,0-9.2.8-13.6,2.2-4.4,1.4-9,2.1-13.6,2.1"/>
            <path class="st2" d="M0,105.1c-4.6,0-9.2-.7-13.6-2.1-4.4-1.4-9-2.1-13.6-2.1-4.6,0-9.2.7-13.6,2.1-4.4,1.4-9,2.1-13.6,2.1-4.6,0-9.2-.7-13.6-2.1-4.4-1.4-9-2.1-13.6-2.1-4.6,0-9.2.7-13.6,2.1-4.4,1.4-9,2.1-13.6,2.1"/>
            <path class="st2" d="M218.3,87.9c-4.6,0-9.2-.7-13.6-2.1-4.4-1.4-9-2.1-13.6-2.1-4.6,0-9.2.7-13.6,2.1-8.9,2.8-18.4,2.8-27.3,0-4.4-1.4-9-2.1-13.6-2.1-4.6,0-9.2.7-13.6,2.1-4.4,1.4-9,2.1-13.6,2.1"/>
            <path class="st2" d="M218.3,70.7c-4.6,0-9.2-.7-13.6-2.1-4.4-1.4-9-2.1-13.6-2.1-4.6,0-9.2.7-13.6,2.1-8.9,2.8-18.4,2.8-27.3,0-4.4-1.4-9-2.1-13.6-2.1-4.6,0-9.2.7-13.6,2.1-4.4,1.4-9,2.1-13.6,2.1"/>
            <path class="st2" d="M218.3,79.3c-4.6,0-9.2-.7-13.6-2.1-4.4-1.4-9-2.1-13.6-2.2-4.6,0-9.2.8-13.7,2.2-8.9,2.8-18.4,2.8-27.3,0-4.4-1.4-9-2.1-13.6-2.1-4.6,0-9.2.7-13.6,2.1-4.4,1.4-9,2.1-13.6,2.1"/>
            <rect class="st10" x="0" y="64.5" width="109.1" height="25.8"/>
            <path class="st2" d="M109.1,87.9c-4.6,0-9.2-.7-13.7-2.1-4.4-1.4-9-2.1-13.6-2.1-4.6,0-9.2.7-13.6,2.1-4.4,1.4-9,2.1-13.6,2.1-4.6,0-9.2-.7-13.6-2.1-4.4-1.4-9-2.1-13.6-2.1-4.6,0-9.2.7-13.6,2.1-4.4,1.4-9,2.1-13.6,2.1"/>
            <path class="st2" d="M109.1,70.7c-4.6,0-9.2-.7-13.7-2.1-4.4-1.4-9-2.1-13.6-2.1-4.6,0-9.2.7-13.6,2.1-4.4,1.4-9,2.1-13.6,2.1-4.6,0-9.2-.7-13.6-2.1-4.4-1.4-9-2.1-13.6-2.1-4.6,0-9.2.7-13.6,2.1-4.4,1.4-9,2.1-13.6,2.1"/>
            <path class="st2" d="M109.1,79.3c-4.6,0-9.2-.7-13.6-2.1-4.4-1.4-9-2.1-13.6-2.1-4.6,0-9.2.7-13.6,2.1-4.4,1.4-9,2.1-13.6,2.1-4.6,0-9.2-.7-13.6-2.1s-9-2.1-13.6-2.1c-4.6,0-9.2.7-13.6,2.1-4.4,1.4-9,2.1-13.6,2.1"/>
            <path class="st2" d="M0,87.9c-4.6,0-9.2-.7-13.6-2.1-4.4-1.4-9-2.1-13.6-2.1-4.6,0-9.2.7-13.6,2.1s-9,2.1-13.6,2.1c-4.6,0-9.2-.7-13.6-2.1-4.4-1.4-9-2.1-13.6-2.1-4.6,0-9.2.7-13.6,2.1-4.4,1.4-9,2.1-13.6,2.1"/>
            <path class="st2" d="M0,70.7c-4.6,0-9.2-.7-13.6-2.1-4.4-1.4-9-2.1-13.6-2.1-4.6,0-9.2.7-13.6,2.1-4.4,1.4-9,2.1-13.6,2.1-4.6,0-9.2-.7-13.6-2.1-4.4-1.4-9-2.1-13.6-2.1-4.6,0-9.2.7-13.6,2.1-4.4,1.4-9,2.1-13.6,2.1"/>
            <path class="st2" d="M0,79.3c-4.6,0-9.2-.7-13.6-2.1-4.4-1.4-9-2.1-13.6-2.1-4.6,0-9.2.7-13.6,2.1-4.4,1.4-9,2.1-13.6,2.1-4.6,0-9.2-.7-13.6-2.1-4.4-1.4-9-2.1-13.6-2.1-4.6,0-9.2.7-13.6,2.1-4.4,1.4-9,2.1-13.6,2.1"/>
            <path class="st2" d="M218.3,62.1c-4.6,0-9.2-.7-13.6-2.1-4.4-1.4-9-2.1-13.6-2.1-4.6,0-9.2.7-13.6,2.1-8.9,2.8-18.4,2.8-27.3,0-4.4-1.4-9-2.1-13.6-2.1-4.6,0-9.2.7-13.6,2.1-4.4,1.4-9,2.1-13.6,2.1"/>
            <path class="st2" d="M218.3,44.9c-4.6,0-9.2-.7-13.6-2.1-8.9-2.8-18.4-2.8-27.3,0s-18.4,2.8-27.3,0-18.4-2.8-27.3,0c-4.4,1.4-9,2.1-13.6,2.1"/>
            <path class="st2" d="M218.3,53.5c-4.6,0-9.2-.7-13.6-2.1-8.9-2.8-18.4-2.8-27.3,0-8.9,2.8-18.4,2.8-27.3,0-8.9-2.8-18.4-2.8-27.3,0-4.4,1.4-9,2.1-13.6,2.1"/>
            <rect class="st10" x="0" y="38.7" width="109.1" height="25.8"/>
            <path class="st2" d="M109.1,62.1c-4.6,0-9.2-.7-13.7-2.1-4.4-1.4-9-2.1-13.6-2.1-4.6,0-9.2.7-13.6,2.1-4.4,1.4-9,2.1-13.6,2.1-4.6,0-9.2-.7-13.6-2.1-4.4-1.4-9-2.1-13.6-2.1-4.6,0-9.2.7-13.6,2.1C9.2,61.4,4.6,62.1,0,62.1"/>
            <path class="st2" d="M109.1,44.9c-4.6,0-9.2-.7-13.7-2.1-8.9-2.8-18.4-2.8-27.3,0-8.9,2.8-18.4,2.8-27.3,0-4.4-1.4-9-2.1-13.6-2.1-4.6,0-9.2.7-13.6,2.1C9.2,44.2,4.6,44.9,0,44.9"/>
            <path class="st2" d="M109.1,53.5c-4.6,0-9.2-.7-13.7-2.1-8.9-2.8-18.4-2.8-27.3,0-8.9,2.8-18.4,2.8-27.3,0-4.4-1.4-9-2.1-13.6-2.1-4.6,0-9.2.7-13.6,2.1C9.2,52.7,4.6,53.5,0,53.5"/>
            <path class="st2" d="M0,62.1c-4.6,0-9.2-.7-13.6-2.1-4.4-1.4-9-2.1-13.6-2.1-4.6,0-9.2.7-13.6,2.1-4.4,1.4-9,2.1-13.6,2.1-4.6,0-9.2-.7-13.6-2.1-4.4-1.4-9-2.1-13.6-2.1-4.6,0-9.2.7-13.6,2.1-4.4,1.4-9,2.1-13.6,2.1"/>
            <path class="st2" d="M0,44.9c-4.6,0-9.2-.7-13.6-2.1-4.4-1.4-9-2.1-13.6-2.1-4.6,0-9.2.7-13.6,2.1-4.4,1.4-9,2.1-13.6,2.1-4.6,0-9.2-.7-13.6-2.1-4.4-1.4-9-2.1-13.6-2.1-4.6,0-9.2.7-13.6,2.1-4.4,1.4-9,2.1-13.6,2.1"/>
            <path class="st2" d="M0,53.5c-4.6,0-9.2-.7-13.6-2.1-4.4-1.4-9-2.1-13.6-2.1-4.6,0-9.2.7-13.6,2.1-4.4,1.4-9,2.1-13.6,2.1-4.6,0-9.2-.7-13.6-2.1-4.4-1.4-9-2.1-13.6-2.2-4.6,0-9.2.7-13.6,2.1-4.4,1.4-9,2.1-13.6,2.1"/>
            <path class="st2" d="M218.3,36.3c-4.6,0-9.2-.7-13.6-2.1-8.9-2.8-18.4-2.8-27.3,0s-18.4,2.8-27.3,0-18.4-2.8-27.3,0c-4.4,1.4-9,2.1-13.6,2.1"/>
            <path class="st2" d="M218.3,19.1c-4.6,0-9.2-.7-13.6-2.1-8.9-2.8-18.4-2.8-27.3,0s-18.4,2.8-27.3,0-18.4-2.8-27.3,0c-4.4,1.4-9,2.1-13.6,2.1"/>
            <path class="st2" d="M218.3,27.7c-4.6,0-9.2-.7-13.6-2.1-8.9-2.8-18.4-2.8-27.3,0s-18.4,2.8-27.3,0-18.4-2.8-27.3,0c-4.4,1.4-9,2.1-13.6,2.1"/>
            <rect class="st10" x="0" y="12.9" width="109.1" height="25.8"/>
            <path class="st2" d="M109.1,36.3c-4.6,0-9.2-.7-13.7-2.1-8.9-2.8-18.4-2.8-27.3,0-4.4,1.4-9,2.1-13.6,2.1-4.6,0-9.2-.7-13.6-2.1-4.4-1.4-9-2.1-13.6-2.1-4.6,0-9.2.7-13.6,2.1C9.2,35.6,4.6,36.3,0,36.3"/>
            <path class="st2" d="M109.1,19.1c-4.6,0-9.2-.7-13.7-2.1-8.9-2.8-18.4-2.8-27.3,0-4.4,1.4-9,2.1-13.6,2.1-4.6,0-9.2-.7-13.6-2.1-4.4-1.4-9-2.1-13.6-2.1-4.6,0-9.2.7-13.6,2.1C9.2,18.4,4.6,19.1,0,19.1"/>
            <path class="st2" d="M109.1,27.7c-4.6,0-9.2-.7-13.7-2.1-8.9-2.8-18.4-2.8-27.3,0-4.4,1.4-9,2.1-13.6,2.1-4.6,0-9.2-.7-13.6-2.1-4.4-1.4-9-2.1-13.6-2.1-4.6,0-9.2.7-13.6,2.1C9.2,27,4.6,27.7,0,27.7"/>
            <path class="st2" d="M0,36.3c-4.6,0-9.2-.7-13.6-2.1-4.4-1.4-9-2.1-13.6-2.1-4.6,0-9.2.7-13.6,2.1-4.4,1.4-9,2.1-13.6,2.1-4.6,0-9.2-.7-13.6-2.1-4.4-1.4-9-2.1-13.6-2.1-4.6,0-9.2.7-13.6,2.1-4.4,1.4-9,2.1-13.6,2.1"/>
            <path class="st2" d="M0,19.1c-4.6,0-9.2-.7-13.6-2.1-4.4-1.4-9-2.1-13.6-2.1-4.6,0-9.2.7-13.6,2.1-4.4,1.4-9,2.1-13.6,2.1-4.6,0-9.2-.7-13.6-2.1-4.4-1.4-9-2.1-13.6-2.1-4.6,0-9.2.7-13.6,2.1-4.4,1.4-9,2.1-13.6,2.1"/>
            <path class="st2" d="M0,27.7c-4.6,0-9.2-.7-13.6-2.1-4.4-1.4-9-2.1-13.6-2.1-4.6,0-9.2.7-13.6,2.1-4.4,1.4-9,2.1-13.6,2.1-4.6,0-9.2-.7-13.6-2.1-4.4-1.4-9-2.1-13.6-2.1-4.6,0-9.2.7-13.6,2.1-4.4,1.4-9,2.1-13.6,2.1"/>
            <path class="st2" d="M218.3,10.5c-4.6,0-9.2-.7-13.6-2.1-8.9-2.8-18.4-2.8-27.3,0s-18.4,2.8-27.3,0-18.4-2.8-27.3,0c-4.4,1.4-9,2.1-13.6,2.1"/>
            <path class="st2" d="M218.3,1.9c-4.6,0-9.2-.7-13.6-2.1-8.9-2.8-18.4-2.8-27.3,0-8.9,2.8-18.4,2.8-27.3,0-8.9-2.8-18.4-2.8-27.3,0-4.4,1.4-9,2.1-13.6,2.1"/>
            <rect class="st10" x="0" y="-12.9" width="109.1" height="25.8"/>
            <path class="st2" d="M109.1,10.5c-4.6,0-9.2-.7-13.7-2.1-8.9-2.8-18.4-2.8-27.3,0-4.4,1.4-9,2.1-13.6,2.1-4.6,0-9.2-.7-13.6-2.1-4.4-1.4-9-2.1-13.6-2.2-4.6,0-9.2.7-13.6,2.1C9.2,9.7,4.6,10.5,0,10.5"/>
            <path class="st2" d="M109.1,1.9c-4.6,0-9.2-.7-13.7-2.1-8.9-2.8-18.4-2.8-27.3,0-4.4,1.4-9,2.1-13.6,2.1-4.6,0-9.2-.7-13.6-2.1-4.4-1.4-9-2.1-13.6-2.1-4.6,0-9.2.7-13.6,2.1C9.2,1.1,4.6,1.9,0,1.9"/>
            <path class="st2" d="M0,10.5c-4.6,0-9.2-.7-13.6-2.1-4.4-1.4-9-2.1-13.6-2.2-4.6,0-9.2.7-13.6,2.1-4.4,1.4-9,2.1-13.6,2.1-4.6,0-9.2-.7-13.6-2.1-4.4-1.4-9-2.1-13.6-2.2-4.6,0-9.2.7-13.6,2.1-4.4,1.4-9,2.1-13.6,2.1"/>
            <path class="st2" d="M0,1.9c-4.6,0-9.2-.7-13.6-2.1-4.4-1.4-9-2.1-13.6-2.1-4.6,0-9.2.7-13.6,2.1-4.4,1.4-9,2.1-13.6,2.1-4.6,0-9.2-.7-13.6-2.1-4.4-1.4-9-2.1-13.6-2.1-4.6,0-9.2.7-13.6,2.1-4.4,1.4-9,2.1-13.6,2.1"/>
          </g>
        </g>
      </g>
    </pattern>
    <linearGradient id="linear-gradient1" x1="725.6" y1="733.9" x2="720" y2="31" gradientTransform="translate(0 970) scale(1 -1)" gradientUnits="userSpaceOnUse">
      <stop offset="0" stop-color="#000"/>
      <stop offset="0" stop-color="#111"/>
      <stop offset=".3" stop-color="#3e3e3e"/>
      <stop offset=".6" stop-color="#878787"/>
      <stop offset=".9" stop-color="#e9e9e9"/>
    </linearGradient>
    <linearGradient id="linear-gradient2" x1="483" y1="365.4" x2="538.5" y2="438.7" gradientTransform="translate(0 970) scale(1 -1)" gradientUnits="userSpaceOnUse">
      <stop offset="0" stop-color="#666665"/>
      <stop offset="0" stop-color="#6a6a69"/>
      <stop offset=".5" stop-color="#aeaeae"/>
      <stop offset=".8" stop-color="#d9d9d9"/>
      <stop offset="1" stop-color="#e9e9e9"/>
    </linearGradient>
    <linearGradient id="linear-gradient3" x1="-236.1" y1="365.4" x2="-180.7" y2="438.7" gradientTransform="translate(728.5 970) rotate(-180)" gradientUnits="userSpaceOnUse">
      <stop offset="0" stop-color="#666665"/>
      <stop offset="0" stop-color="#6a6a69"/>
      <stop offset=".5" stop-color="#aeaeae"/>
      <stop offset=".8" stop-color="#d9d9d9"/>
      <stop offset="1" stop-color="#e9e9e9"/>
    </linearGradient>
    <mask id="mask" x="0" y="-63.7" width="1440" height="1031.1" maskUnits="userSpaceOnUse">
      <g id="mask1" data-name="mask">
        <polygon id="paper-mask" class="st21" points="723.6 663.2 1041.4 439.4 1067.8 -63.7 379.9 -63.7 405.7 438.9 723.6 663.2"/>
        <rect id="paper-mask-full" class="st21" width="1440" height="967.4"/>
      </g>
    </mask>
    <clipPath id="clippath-1">
      <rect class="st0" x="0" y="0" width="109.1" height="103.2"/>
    </clipPath>
    <pattern id="Unnamed_Pattern_2-5" data-name="Unnamed Pattern 2-5" x="0" y="0" width="109.1" height="103.2" patternTransform="translate(3320.1 -15112.1)" patternUnits="userSpaceOnUse" viewBox="0 0 109.1 103.2">
      <g>
        <rect class="st0" width="109.1" height="103.2"/>
        <rect class="st0" x="0" y="0" width="109.1" height="103.2"/>
        <g class="st19">
          <g>
            <path class="st2" d="M218.3,96.5c-4.6,0-9.2-.7-13.6-2.1-4.4-1.4-9-2.1-13.6-2.2-4.6,0-9.2.7-13.6,2.1-8.9,2.8-18.4,2.8-27.3,0-4.4-1.4-9-2.1-13.7-2.1-4.6,0-9.2.7-13.6,2.1-4.4,1.4-9,2.1-13.6,2.1"/>
            <path class="st2" d="M218.3,105.1c-4.6,0-9.2-.7-13.6-2.1-4.4-1.4-9-2.1-13.6-2.1-4.6,0-9.2.7-13.7,2.1-8.9,2.8-18.4,2.8-27.3,0-4.4-1.4-9-2.1-13.6-2.1-4.6,0-9.2.7-13.6,2.1-4.4,1.4-9,2.1-13.6,2.1"/>
            <rect class="st10" x="0" y="90.3" width="109.1" height="25.8"/>
            <path class="st2" d="M109.1,96.5c-4.6,0-9.2-.7-13.6-2.1-4.4-1.4-9-2.1-13.6-2.2-4.6,0-9.2.8-13.6,2.2-4.4,1.4-9,2.1-13.6,2.1-4.6,0-9.2-.7-13.6-2.1-4.4-1.4-9-2.1-13.6-2.2-4.6,0-9.2.8-13.6,2.2-4.4,1.4-9,2.1-13.6,2.1"/>
            <path class="st2" d="M109.1,105.1c-4.6,0-9.2-.7-13.6-2.1-4.4-1.4-9-2.1-13.6-2.1-4.6,0-9.2.7-13.6,2.1-4.4,1.4-9,2.1-13.6,2.1-4.6,0-9.2-.7-13.6-2.1-4.4-1.4-9-2.1-13.6-2.1-4.6,0-9.2.7-13.6,2.1-4.4,1.4-9,2.1-13.6,2.1"/>
            <path class="st2" d="M0,96.5c-4.6,0-9.2-.7-13.6-2.1-4.4-1.4-9-2.1-13.6-2.2-4.6,0-9.2.8-13.6,2.2-4.4,1.4-9,2.1-13.6,2.1-4.6,0-9.2-.7-13.6-2.1-4.4-1.4-9-2.1-13.6-2.2-4.6,0-9.2.8-13.6,2.2-4.4,1.4-9,2.1-13.6,2.1"/>
            <path class="st2" d="M0,105.1c-4.6,0-9.2-.7-13.6-2.1-4.4-1.4-9-2.1-13.6-2.1-4.6,0-9.2.7-13.6,2.1-4.4,1.4-9,2.1-13.6,2.1-4.6,0-9.2-.7-13.6-2.1-4.4-1.4-9-2.1-13.6-2.1-4.6,0-9.2.7-13.6,2.1-4.4,1.4-9,2.1-13.6,2.1"/>
            <path class="st2" d="M218.3,87.9c-4.6,0-9.2-.7-13.6-2.1-4.4-1.4-9-2.1-13.6-2.1-4.6,0-9.2.7-13.6,2.1-8.9,2.8-18.4,2.8-27.3,0-4.4-1.4-9-2.1-13.6-2.1-4.6,0-9.2.7-13.6,2.1-4.4,1.4-9,2.1-13.6,2.1"/>
            <path class="st2" d="M218.3,70.7c-4.6,0-9.2-.7-13.6-2.1-4.4-1.4-9-2.1-13.6-2.1-4.6,0-9.2.7-13.6,2.1-8.9,2.8-18.4,2.8-27.3,0-4.4-1.4-9-2.1-13.6-2.1-4.6,0-9.2.7-13.6,2.1-4.4,1.4-9,2.1-13.6,2.1"/>
            <path class="st2" d="M218.3,79.3c-4.6,0-9.2-.7-13.6-2.1-4.4-1.4-9-2.1-13.6-2.2-4.6,0-9.2.8-13.7,2.2-8.9,2.8-18.4,2.8-27.3,0-4.4-1.4-9-2.1-13.6-2.1-4.6,0-9.2.7-13.6,2.1-4.4,1.4-9,2.1-13.6,2.1"/>
            <rect class="st10" x="0" y="64.5" width="109.1" height="25.8"/>
            <path class="st2" d="M109.1,87.9c-4.6,0-9.2-.7-13.7-2.1-4.4-1.4-9-2.1-13.6-2.1-4.6,0-9.2.7-13.6,2.1-4.4,1.4-9,2.1-13.6,2.1-4.6,0-9.2-.7-13.6-2.1-4.4-1.4-9-2.1-13.6-2.1-4.6,0-9.2.7-13.6,2.1-4.4,1.4-9,2.1-13.6,2.1"/>
            <path class="st2" d="M109.1,70.7c-4.6,0-9.2-.7-13.7-2.1-4.4-1.4-9-2.1-13.6-2.1-4.6,0-9.2.7-13.6,2.1-4.4,1.4-9,2.1-13.6,2.1-4.6,0-9.2-.7-13.6-2.1-4.4-1.4-9-2.1-13.6-2.1-4.6,0-9.2.7-13.6,2.1-4.4,1.4-9,2.1-13.6,2.1"/>
            <path class="st2" d="M109.1,79.3c-4.6,0-9.2-.7-13.6-2.1-4.4-1.4-9-2.1-13.6-2.1-4.6,0-9.2.7-13.6,2.1-4.4,1.4-9,2.1-13.6,2.1-4.6,0-9.2-.7-13.6-2.1s-9-2.1-13.6-2.1c-4.6,0-9.2.7-13.6,2.1-4.4,1.4-9,2.1-13.6,2.1"/>
            <path class="st2" d="M0,87.9c-4.6,0-9.2-.7-13.6-2.1-4.4-1.4-9-2.1-13.6-2.1-4.6,0-9.2.7-13.6,2.1s-9,2.1-13.6,2.1c-4.6,0-9.2-.7-13.6-2.1-4.4-1.4-9-2.1-13.6-2.1-4.6,0-9.2.7-13.6,2.1-4.4,1.4-9,2.1-13.6,2.1"/>
            <path class="st2" d="M0,70.7c-4.6,0-9.2-.7-13.6-2.1-4.4-1.4-9-2.1-13.6-2.1-4.6,0-9.2.7-13.6,2.1-4.4,1.4-9,2.1-13.6,2.1-4.6,0-9.2-.7-13.6-2.1-4.4-1.4-9-2.1-13.6-2.1-4.6,0-9.2.7-13.6,2.1-4.4,1.4-9,2.1-13.6,2.1"/>
            <path class="st2" d="M0,79.3c-4.6,0-9.2-.7-13.6-2.1-4.4-1.4-9-2.1-13.6-2.1-4.6,0-9.2.7-13.6,2.1-4.4,1.4-9,2.1-13.6,2.1-4.6,0-9.2-.7-13.6-2.1-4.4-1.4-9-2.1-13.6-2.1-4.6,0-9.2.7-13.6,2.1-4.4,1.4-9,2.1-13.6,2.1"/>
            <path class="st2" d="M218.3,62.1c-4.6,0-9.2-.7-13.6-2.1-4.4-1.4-9-2.1-13.6-2.1-4.6,0-9.2.7-13.6,2.1-8.9,2.8-18.4,2.8-27.3,0-4.4-1.4-9-2.1-13.6-2.1-4.6,0-9.2.7-13.6,2.1-4.4,1.4-9,2.1-13.6,2.1"/>
            <path class="st2" d="M218.3,44.9c-4.6,0-9.2-.7-13.6-2.1-8.9-2.8-18.4-2.8-27.3,0s-18.4,2.8-27.3,0-18.4-2.8-27.3,0c-4.4,1.4-9,2.1-13.6,2.1"/>
            <path class="st2" d="M218.3,53.5c-4.6,0-9.2-.7-13.6-2.1-8.9-2.8-18.4-2.8-27.3,0-8.9,2.8-18.4,2.8-27.3,0-8.9-2.8-18.4-2.8-27.3,0-4.4,1.4-9,2.1-13.6,2.1"/>
            <rect class="st10" x="0" y="38.7" width="109.1" height="25.8"/>
            <path class="st2" d="M109.1,62.1c-4.6,0-9.2-.7-13.7-2.1-4.4-1.4-9-2.1-13.6-2.1-4.6,0-9.2.7-13.6,2.1-4.4,1.4-9,2.1-13.6,2.1-4.6,0-9.2-.7-13.6-2.1-4.4-1.4-9-2.1-13.6-2.1-4.6,0-9.2.7-13.6,2.1C9.2,61.4,4.6,62.1,0,62.1"/>
            <path class="st2" d="M109.1,44.9c-4.6,0-9.2-.7-13.7-2.1-8.9-2.8-18.4-2.8-27.3,0-8.9,2.8-18.4,2.8-27.3,0-4.4-1.4-9-2.1-13.6-2.1-4.6,0-9.2.7-13.6,2.1C9.2,44.2,4.6,44.9,0,44.9"/>
            <path class="st2" d="M109.1,53.5c-4.6,0-9.2-.7-13.7-2.1-8.9-2.8-18.4-2.8-27.3,0-8.9,2.8-18.4,2.8-27.3,0-4.4-1.4-9-2.1-13.6-2.1-4.6,0-9.2.7-13.6,2.1C9.2,52.7,4.6,53.5,0,53.5"/>
            <path class="st2" d="M0,62.1c-4.6,0-9.2-.7-13.6-2.1-4.4-1.4-9-2.1-13.6-2.1-4.6,0-9.2.7-13.6,2.1-4.4,1.4-9,2.1-13.6,2.1-4.6,0-9.2-.7-13.6-2.1-4.4-1.4-9-2.1-13.6-2.1-4.6,0-9.2.7-13.6,2.1-4.4,1.4-9,2.1-13.6,2.1"/>
            <path class="st2" d="M0,44.9c-4.6,0-9.2-.7-13.6-2.1-4.4-1.4-9-2.1-13.6-2.1-4.6,0-9.2.7-13.6,2.1-4.4,1.4-9,2.1-13.6,2.1-4.6,0-9.2-.7-13.6-2.1-4.4-1.4-9-2.1-13.6-2.1-4.6,0-9.2.7-13.6,2.1-4.4,1.4-9,2.1-13.6,2.1"/>
            <path class="st2" d="M0,53.5c-4.6,0-9.2-.7-13.6-2.1-4.4-1.4-9-2.1-13.6-2.1-4.6,0-9.2.7-13.6,2.1-4.4,1.4-9,2.1-13.6,2.1-4.6,0-9.2-.7-13.6-2.1-4.4-1.4-9-2.1-13.6-2.2-4.6,0-9.2.7-13.6,2.1-4.4,1.4-9,2.1-13.6,2.1"/>
            <path class="st2" d="M218.3,36.3c-4.6,0-9.2-.7-13.6-2.1-8.9-2.8-18.4-2.8-27.3,0s-18.4,2.8-27.3,0-18.4-2.8-27.3,0c-4.4,1.4-9,2.1-13.6,2.1"/>
            <path class="st2" d="M218.3,19.1c-4.6,0-9.2-.7-13.6-2.1-8.9-2.8-18.4-2.8-27.3,0s-18.4,2.8-27.3,0-18.4-2.8-27.3,0c-4.4,1.4-9,2.1-13.6,2.1"/>
            <path class="st2" d="M218.3,27.7c-4.6,0-9.2-.7-13.6-2.1-8.9-2.8-18.4-2.8-27.3,0s-18.4,2.8-27.3,0-18.4-2.8-27.3,0c-4.4,1.4-9,2.1-13.6,2.1"/>
            <rect class="st10" x="0" y="12.9" width="109.1" height="25.8"/>
            <path class="st2" d="M109.1,36.3c-4.6,0-9.2-.7-13.7-2.1-8.9-2.8-18.4-2.8-27.3,0-4.4,1.4-9,2.1-13.6,2.1-4.6,0-9.2-.7-13.6-2.1-4.4-1.4-9-2.1-13.6-2.1-4.6,0-9.2.7-13.6,2.1C9.2,35.6,4.6,36.3,0,36.3"/>
            <path class="st2" d="M109.1,19.1c-4.6,0-9.2-.7-13.7-2.1-8.9-2.8-18.4-2.8-27.3,0-4.4,1.4-9,2.1-13.6,2.1-4.6,0-9.2-.7-13.6-2.1-4.4-1.4-9-2.1-13.6-2.1-4.6,0-9.2.7-13.6,2.1C9.2,18.4,4.6,19.1,0,19.1"/>
            <path class="st2" d="M109.1,27.7c-4.6,0-9.2-.7-13.7-2.1-8.9-2.8-18.4-2.8-27.3,0-4.4,1.4-9,2.1-13.6,2.1-4.6,0-9.2-.7-13.6-2.1-4.4-1.4-9-2.1-13.6-2.1-4.6,0-9.2.7-13.6,2.1C9.2,27,4.6,27.7,0,27.7"/>
            <path class="st2" d="M0,36.3c-4.6,0-9.2-.7-13.6-2.1-4.4-1.4-9-2.1-13.6-2.1-4.6,0-9.2.7-13.6,2.1-4.4,1.4-9,2.1-13.6,2.1-4.6,0-9.2-.7-13.6-2.1-4.4-1.4-9-2.1-13.6-2.1-4.6,0-9.2.7-13.6,2.1-4.4,1.4-9,2.1-13.6,2.1"/>
            <path class="st2" d="M0,19.1c-4.6,0-9.2-.7-13.6-2.1-4.4-1.4-9-2.1-13.6-2.1-4.6,0-9.2.7-13.6,2.1-4.4,1.4-9,2.1-13.6,2.1-4.6,0-9.2-.7-13.6-2.1-4.4-1.4-9-2.1-13.6-2.1-4.6,0-9.2.7-13.6,2.1-4.4,1.4-9,2.1-13.6,2.1"/>
            <path class="st2" d="M0,27.7c-4.6,0-9.2-.7-13.6-2.1-4.4-1.4-9-2.1-13.6-2.1-4.6,0-9.2.7-13.6,2.1-4.4,1.4-9,2.1-13.6,2.1-4.6,0-9.2-.7-13.6-2.1-4.4-1.4-9-2.1-13.6-2.1-4.6,0-9.2.7-13.6,2.1-4.4,1.4-9,2.1-13.6,2.1"/>
            <path class="st2" d="M218.3,10.5c-4.6,0-9.2-.7-13.6-2.1-8.9-2.8-18.4-2.8-27.3,0s-18.4,2.8-27.3,0-18.4-2.8-27.3,0c-4.4,1.4-9,2.1-13.6,2.1"/>
            <path class="st2" d="M218.3,1.9c-4.6,0-9.2-.7-13.6-2.1-8.9-2.8-18.4-2.8-27.3,0-8.9,2.8-18.4,2.8-27.3,0-8.9-2.8-18.4-2.8-27.3,0-4.4,1.4-9,2.1-13.6,2.1"/>
            <rect class="st10" x="0" y="-12.9" width="109.1" height="25.8"/>
            <path class="st2" d="M109.1,10.5c-4.6,0-9.2-.7-13.7-2.1-8.9-2.8-18.4-2.8-27.3,0-4.4,1.4-9,2.1-13.6,2.1-4.6,0-9.2-.7-13.6-2.1-4.4-1.4-9-2.1-13.6-2.2-4.6,0-9.2.7-13.6,2.1C9.2,9.7,4.6,10.5,0,10.5"/>
            <path class="st2" d="M109.1,1.9c-4.6,0-9.2-.7-13.7-2.1-8.9-2.8-18.4-2.8-27.3,0-4.4,1.4-9,2.1-13.6,2.1-4.6,0-9.2-.7-13.6-2.1-4.4-1.4-9-2.1-13.6-2.1-4.6,0-9.2.7-13.6,2.1C9.2,1.1,4.6,1.9,0,1.9"/>
            <path class="st2" d="M0,10.5c-4.6,0-9.2-.7-13.6-2.1-4.4-1.4-9-2.1-13.6-2.2-4.6,0-9.2.7-13.6,2.1-4.4,1.4-9,2.1-13.6,2.1-4.6,0-9.2-.7-13.6-2.1-4.4-1.4-9-2.1-13.6-2.2-4.6,0-9.2.7-13.6,2.1-4.4,1.4-9,2.1-13.6,2.1"/>
            <path class="st2" d="M0,1.9c-4.6,0-9.2-.7-13.6-2.1-4.4-1.4-9-2.1-13.6-2.1-4.6,0-9.2.7-13.6,2.1-4.4,1.4-9,2.1-13.6,2.1-4.6,0-9.2-.7-13.6-2.1-4.4-1.4-9-2.1-13.6-2.1-4.6,0-9.2.7-13.6,2.1-4.4,1.4-9,2.1-13.6,2.1"/>
          </g>
        </g>
      </g>
    </pattern>
    <radialGradient id="radial-gradient" cx="-57.4" cy="-3381.3" fx="-57.4" fy="-3381.3" r="89.9" gradientTransform="translate(1160.1 -1028.8) scale(7.6 -.6)" gradientUnits="userSpaceOnUse">
      <stop offset="0" stop-color="#131517"/>
      <stop offset="0" stop-color="#2e3031"/>
      <stop offset=".2" stop-color="#737374"/>
      <stop offset=".2" stop-color="#7d7d7d"/>
      <stop offset=".3" stop-color="#8a8a8a" stop-opacity=".9"/>
      <stop offset=".3" stop-color="#aeaeae" stop-opacity=".6"/>
      <stop offset=".5" stop-color="#ccc" stop-opacity=".4"/>
      <stop offset=".6" stop-color="#e2e2e2" stop-opacity=".2"/>
      <stop offset=".7" stop-color="#f3f3f3" stop-opacity=".1"/>
      <stop offset=".8" stop-color="#fcfcfc" stop-opacity="0"/>
      <stop offset="1" stop-color="#fff" stop-opacity="0"/>
    </radialGradient>
    <linearGradient id="linear-gradient4" x1="-238.7" y1="179.2" x2="-237.5" y2="179.2" gradientTransform="translate(133238.9 100340.7) scale(556.6 -556.6)" gradientUnits="userSpaceOnUse">
      <stop offset="0" stop-color="#fafafa"/>
      <stop offset=".2" stop-color="#f6f6f6"/>
      <stop offset=".5" stop-color="#eaeaea"/>
      <stop offset=".5" stop-color="#e7e7e7"/>
      <stop offset=".6" stop-color="#ebebeb"/>
      <stop offset=".8" stop-color="#f5f5f5"/>
      <stop offset="1" stop-color="#f8f8f8"/>
    </linearGradient>
    <linearGradient id="linear-gradient5" x1="396.3" y1="746.8" x2="1043.1" y2="746.8" gradientTransform="translate(0 970) scale(1 -1)" gradientUnits="userSpaceOnUse">
      <stop offset="0" stop-color="#fbfbfb"/>
      <stop offset="1" stop-color="#e9e9e9"/>
    </linearGradient>
    <linearGradient id="linear-gradient6" x1="721.3" y1="718.2" x2="716.1" y2="68.7" gradientTransform="translate(0 970) scale(1 -1)" gradientUnits="userSpaceOnUse">
      <stop offset="0" stop-color="#000"/>
      <stop offset="0" stop-color="#111"/>
      <stop offset=".3" stop-color="#3e3e3e"/>
      <stop offset=".6" stop-color="#878787"/>
      <stop offset=".9" stop-color="#e9e9e9"/>
    </linearGradient>
    <linearGradient id="linear-gradient7" x1="497.1" y1="377.7" x2="548.4" y2="445.5" gradientTransform="translate(0 970) scale(1 -1)" gradientUnits="userSpaceOnUse">
      <stop offset="0" stop-color="#666665"/>
      <stop offset="0" stop-color="#6a6a69"/>
      <stop offset=".5" stop-color="#aeaeae"/>
      <stop offset=".8" stop-color="#d9d9d9"/>
      <stop offset="1" stop-color="#e9e9e9"/>
    </linearGradient>
    <linearGradient id="linear-gradient8" x1="-213.7" y1="377.8" x2="-162.4" y2="445.5" gradientTransform="translate(728.5 970) rotate(-180)" gradientUnits="userSpaceOnUse">
      <stop offset="0" stop-color="#666665"/>
      <stop offset="0" stop-color="#6a6a69"/>
      <stop offset=".5" stop-color="#aeaeae"/>
      <stop offset=".8" stop-color="#d9d9d9"/>
      <stop offset="1" stop-color="#e9e9e9"/>
    </linearGradient>
  </defs>
  <g class="st14">
    <g id="Layer_2">
      <g id="animation">
        <rect id="body" class="st11" x="374" y="358.5" width="699.9" height="513.3"/>
        <g id="accents">
          <polygon id="accent-left" class="st23" points="657.7 629.4 662.8 632.9 373.8 826.2 373.8 820.9 657.7 629.4"/>
          <polygon id="accent-right" class="st23" points="792.4 627.7 787.9 630.8 1073.7 831.6 1073.7 825 792.4 627.7"/>
        </g>
        <g id="pattern-bottom" class="st24">
          <polygon class="st18" points="1038.5 441.4 1038.5 358.5 410 358.5 410.1 442.1 723.8 658.4 1038.5 441.4"/>
          <polygon class="st17" points="1038.5 441.4 1038.5 358.5 410 358.5 410.1 442.1 723.8 658.4 1038.5 441.4"/>
        </g>
        <g id="shadows-inner">
          <polygon class="st4" points="374 376.5 398.3 451.6 723.8 674.7 723.8 674.7 723.8 658.4 405.8 439 374 360.3 374 376.5"/>
          <polygon class="st5" points="1073.7 376.5 1049.3 451.6 723.8 674.7 723.8 674.7 723.8 658.4 1041.8 439 1073.7 360.3 1073.7 376.5"/>
        </g>
        <path id="closed" class="st21" d="M743.7,358.5h-369c-.4,0-.8.3-.8.8,0,0,0,.1,0,.2l12.3,83.6c0,.2,321.5,228.9,321.5,228.9l15.7,11.2c.3.2.7.2,1,0,.3-.2,7.4-5.2,15.7-11.2l321-229.1c.2-.1,12.7-83.4,12.7-83.4,0-.4-.2-.8-.6-.9,0,0-.1,0-.2,0h-329.2Z"/>
        <polygon id="pattern-top" class="st18" points="1038.6 351.2 1016.9 283.4 725.3 80.9 724.4 80.3 724.3 80.4 724.2 80.3 723.2 80.9 431.6 283.4 410 351.2 410 358.5 724.3 358.5 1038.5 358.5 1038.6 351.2"/>
        <g class="st3">
          <polygon id="paper" class="st20" points="406 799.5 406 369.6 1041.2 369.6 1041.2 800.9 406 799.5"/>
        </g>
        <g id="button">
          <path class="st25" d="M771.5,672.3c0,26.6-21.5,48.1-48.1,48.1s-48.1-21.5-48.1-48.1,21.5-48.1,48.1-48.1h0c26.6,0,48.1,21.5,48.1,48.1"/>
          <circle class="st1" cx="723.4" cy="672.3" r="48.1"/>
          <path class="st13" d="M717,652.2c4.9-2,9.7-1.8,14,1.3,4.7,3.3,4.1,9.3,1.4,12.6-.9,1.1-1.2,1.1-2.4.4-.8-.5-1.6-1.1-2.4-1.6-.5-.4-.5-.8-.3-1.4.5-.9.8-2,.9-3,0-2.8-2.5-4.6-5.6-4.4-2.3.2-4,1.1-4.8,3.3-.8,2-.2,4.3,1.6,5.6,1.5,1.1,3.1,2.2,4.7,3.1,2.8,1.7,5.7,3.2,8.4,4.9,2.4,1.5,4.2,3.9,4.8,6.7.9,4.8-1.4,9.5-5.6,11.9-2.9,1.6-6.2,2.4-9.5,2.3-3.3,0-6.6-.9-9.4-2.6-1.2-.8-2.3-1.9-3.1-3.1.3-.2.7-.4,1-.6.6-.4,1.2-.8,1.7-1.3-.6.2-1.2.4-1.8.4-.5.1-1.1.2-1.7.2-1.5,0-3-.3-4.3-.8-.4-.1-.6-.4-.8-.7-.1-.3,0-.7.1-1l1.5-3c.4-.7.9-.8,1.7-.5,2.1.9,4.6.1,5.9-1.7.5-.7,1-.8,1.7-.5l3,1.7c.3.1.6.4.7.8,0,.4,0,.7-.2,1-.8,1.1-1.8,2.1-3,2.9.8,1.3,2,2.3,3.4,2.9,2.5,1.1,5.2,1.1,7.8.2,4.7-1.6,6.4-7.6,2.2-10.9-1.7-1.3-3.5-2.4-5.4-3.4-2.4-1.4-4.9-2.6-7.2-4.1-2.6-1.5-4.4-4.2-4.7-7.2-.6-4.4,1.8-8.6,6-10.2"/>
        </g>
        <path id="arrow" class="st13" d="M719,563.2l4,6.2,3.9-6c1.2-1.8,3-4.8,3.9-6.7l1.5-2.9-.5-.2-2.2,2.8c-1.4,1.8-3.5,4.7-4.7,6.5l-1.5,2.4.3-3.8c.2-2.9.4-7.6.4-10.5v-14.4c0-2.9-.2-7.6-.4-10.5l-.4-4.6h-.6l-.4,4.6c-.2,2.9-.4,7.6-.4,10.5v14.4c0,2.9.2,7.6.4,10.5l.3,3.8-1.6-2.5c-1.2-1.8-3.3-4.7-4.7-6.5l-2.1-2.7-.6.2,1.4,2.8c1,1.9,2.7,4.9,3.9,6.7"/>
        <g id="text">
          <path class="st22" d="M646.5,493.4c-.8-.5-1.4-1.3-1.7-2.2-.4-.9-.6-1.9-.6-2.9,0-2.1.5-4.3,1.5-6.2.9-2,2.2-3.7,3.9-5.1,1.3-1.2,3-1.9,4.7-2,.6,0,1.3.2,1.8.5.5.4.7,1,.7,1.6,0,.7-.2,1.5-.4,2.2-.3.8-.6,1.5-1.1,2.1-.3.5-.8.8-1.4.9-.5,0-.8-.3-1-.7.7-.7,1.2-1.5,1.8-2.4.5-.7.8-1.4.8-2.2,0-.6-.4-.9-1.1-.9-1.1,0-2.3.7-3.5,2-1.3,1.5-2.4,3.2-3.1,5-.8,1.7-1.2,3.6-1.2,5.5,0,1.1.3,2.2.9,3.2.6.9,1.6,1.4,2.6,1.3.9,0,1.8-.3,2.5-.7.9-.5,1.7-1.1,2.4-1.9.7-.8,1.3-1.6,1.7-2.5l.6.4c-.8,1.6-2,3-3.4,4.2-1.2,1-2.8,1.6-4.4,1.6-1,0-2-.2-2.9-.8"/>
          <path class="st22" d="M656.5,492.2c-.3-.5-.5-1.2-.5-1.8.1-2,.6-4,1.5-5.9.9-2.3,2-4.5,3.3-6.6,1.2-1.9,2.2-2.9,2.7-2.9s.5.2.7.6c.2.4.3.8.3,1.3-.1,1.1-.4,2.2-.9,3.2-.6,1.5-1.4,2.9-2.4,4.3-.9,1.3-1.9,2.5-3.2,3.5-.1.7-.2,1.5-.3,2.2,0,.4,0,.9.3,1.2.2.3.4.4.8.4.7,0,1.4-.5,1.8-1.1.7-.8,1.2-1.7,1.7-2.7l.6.3c-.6,1.3-1.3,2.4-2.3,3.4-.7.7-1.6,1.2-2.6,1.2-.6,0-1.2-.2-1.5-.7M661,483.2c.7-1.1,1.3-2.3,1.8-3.5.4-.8.6-1.6.7-2.5-.2,0-.6.5-1.2,1.5-.7,1.2-1.4,2.4-2,3.6-.7,1.4-1.2,2.7-1.7,4.2.9-1,1.7-2.1,2.4-3.2"/>
          <path class="st22" d="M662.2,492.3c-.4-.4-.6-1-.5-1.5,0-.9.2-1.8.5-2.6.3-1,.8-2,1.3-2.9.5-.8,1.1-1.2,1.7-1.2.2,0,.4,0,.5.2.1.1.2.3.2.5,0,.2,0,.4-.2.6-.1.2-.3.6-.6,1.1-.4.7-.8,1.5-1.2,2.2-.3.6-.4,1.2-.4,1.8,0,.4,0,.7.3,1,.2.2.5.3.8.3,1.3,0,2.5-1.2,3.7-3.6l.3.4c-.4,1.2-1.2,2.4-2.1,3.3-.7.7-1.7,1.1-2.8,1.2-.6,0-1.1-.2-1.5-.6M665.7,481.9c-.2-.2-.4-.4-.3-.7,0-.4.2-.8.6-1,.4-.3.8-.4,1.3-.4.7,0,1,.3,1,.9,0,.4-.2.8-.5,1-.3.3-.7.5-1.2.5-.3,0-.6,0-.8-.2"/>
          <path class="st22" d="M668.3,492.7c-.6-.6-.8-1.5-.8-2.3,0-1,.3-2.1.8-3,.5-.9,1.2-1.7,2-2.4.7-.6,1.6-.9,2.5-.9.5,0,1,.1,1.4.5.3.3.5.7.5,1.2,0,.5-.1.9-.3,1.3-.1.3-.5.6-.8.6-.3,0-.6-.2-.7-.5.2-.2.4-.4.5-.7.2-.3.2-.7.2-1.1,0-.3-.2-.4-.5-.4-.6,0-1.2.4-1.6.9-.6.6-1.1,1.4-1.5,2.2-.4.7-.6,1.5-.6,2.3,0,.5.1.9.4,1.3.3.4.8.6,1.3.5.7,0,1.3-.2,1.9-.5.7-.4,1.3-.9,1.8-1.5.6-.7,1-1.4,1.4-2.2l.5.4c-.4.9-.9,1.8-1.6,2.6-.6.7-1.4,1.3-2.2,1.8-.7.4-1.6.6-2.4.7-.8,0-1.5-.3-2.1-.8"/>
          <path class="st22" d="M681.5,492.3c-.4-.5-.8-1.1-1-1.8-.2-.6-.3-1.2-.3-1.9,2-.5,3.1-1.2,3.1-2.1,0-.3,0-.5-.3-.7-.2-.2-.5-.3-.8-.3-1.1.1-2.1.8-2.5,1.9-.8,1.4-1.5,2.8-2,4.3-.1.4-.3.7-.5,1-.2.2-.4.3-.7.2-.3,0-.5-.1-.7-.3-.2-.4-.3-1-.3-1.5,0-2.2.6-4.4,1.4-6.5.8-2.3,1.9-4.5,3.2-6.6,1.2-1.9,2.1-2.8,2.8-2.8.3,0,.6.2.7.5.2.4.3.8.3,1.2,0,.9-.2,1.7-.6,2.5-.5,1-1,1.9-1.8,2.7-.7.8-1.6,1.6-2.5,2.1-.4,1-.7,2-1,3-.2.9-.4,1.8-.5,2.8,1.7-3.9,3.5-5.9,5.3-5.9.6,0,1.2.2,1.7.7.5.4.7,1,.7,1.6,0,.6-.2,1.1-.6,1.5-.4.4-.9.8-1.4,1-.5.2-.9.3-1.4.3.1.7.4,1.3.7,1.9.2.5.7.8,1.2.9.7,0,1.4-.5,1.8-1.1.7-.9,1.3-1.8,1.7-2.9l.3.4c-.4,1.2-1.1,2.4-1.9,3.3-.6.8-1.5,1.3-2.5,1.4-.6,0-1.2-.3-1.6-.8M681.8,480.2c.6-.8.9-1.7,1-2.7-.5.5-1,1-1.3,1.7-.7,1.1-1.3,2.3-1.8,3.5.8-.7,1.5-1.5,2.1-2.5"/>
          <path class="st22" d="M693.1,492.3c-.2-.6-.3-1.3-.2-1.9.1-2,.6-4,1.3-5.8.8-2.3,1.8-4.5,3.1-6.6,1.2-1.9,2.1-2.9,2.8-2.9.3,0,.6.2.8.5.2.4.3.8.3,1.2,0,1-.3,2-.8,2.9-.6,1.3-1.3,2.4-2.1,3.5-.7,1-1.6,1.9-2.7,2.5-.5,1.3-.8,2.7-.8,4v.5c0-.2.2-.3.2-.5.3-.8.6-1.5,1-2.2.4-.7.9-1.3,1.4-1.9.6-.6,1.3-.9,2.1-.9.6,0,1.2.2,1.6.7.3.5.5,1.1.5,1.7,0,.3,0,.7-.1,1,0,.3-.2.7-.4,1.2l-.2.5c0,.2-.1.4-.2.6,0,.2,0,.3,0,.5,0,.5.2.8.7.8.5,0,.9-.2,1.2-.5.5-.4,1-.9,1.4-1.4.5-.6.9-1.2,1.2-1.9l.4.4c-.5,1.2-1.2,2.2-2.1,3.2-.7.7-1.7,1.2-2.7,1.2-.5,0-1-.1-1.4-.5-.3-.3-.5-.8-.5-1.2,0-.6.2-1.2.3-1.7.2-.6.3-1.1.4-1.7,0-.7-.3-1-.9-1-.6,0-1.2.4-1.4.9-.5.8-1,1.7-1.3,2.6-.3.8-.6,1.5-1,2.2-.2.4-.6.7-1,.7-.3,0-.6-.3-.7-.8M698,482c.6-.9,1.1-1.8,1.5-2.7.3-.6.5-1.2.6-1.9-.4.3-.7.7-1,1.1-.6.8-1.1,1.7-1.5,2.6-.5,1-1,2.1-1.4,3.1.7-.7,1.3-1.4,1.9-2.3"/>
          <path class="st22" d="M704.9,492.4c-.6-.5-.9-1.3-.8-2.1,0-1.1.4-2.1.9-3,.6-1.1,1.4-2,2.4-2.7.8-.7,1.8-1,2.8-1.1.4,0,.9.1,1.2.4.4.3.5.8.5,1.2,0,.8-.3,1.6-.9,2.1-.6.7-1.4,1.3-2.3,1.7-.9.4-1.9.7-2.8.8,0,.2,0,.4,0,.5,0,.4.1.9.3,1.2.3.5.9.7,1.5.6,1.1,0,2.2-.5,3-1.2,1-.8,1.8-1.8,2.4-2.9l.5.4c-.6,1.4-1.5,2.6-2.7,3.5-1,.8-2.3,1.3-3.7,1.3-.9,0-1.7-.2-2.3-.8M708.3,488.2c.7-.4,1.3-.9,1.8-1.5.4-.5.7-1.1.7-1.7,0-.1,0-.3,0-.4,0,0-.2-.1-.3,0-.6,0-1.1.3-1.5.6-.6.5-1.1,1-1.5,1.7-.4.6-.8,1.3-1,2,.7,0,1.3-.3,1.9-.7"/>
          <path class="st22" d="M715.6,492.3c-.4-.3-.6-.8-.5-1.2,0-.3,0-.7.2-1,.1-.4.3-.9.5-1.3.2-.4.3-.7.5-1.1,0-.3.2-.5.2-.8,0-.6-.4-1.1-1.2-1.5-.3.8-.7,1.6-1.1,2.4-.4.8-.8,1.5-1.1,2l-.4-.7c.8-1.4,1.4-2.8,1.9-4.3-.2-.2-.3-.4-.2-.6,0-.4.1-.8.4-1.2.2-.4.5-.5.7-.5.2,0,.3.1.4.3,0,.1.1.3.2.5,0,.1,0,.3-.1.4l-.2.5c0,.1,0,.2.2.3.2.2.4.3.6.4.5.3.9.7,1.3,1.1.3.4.5.9.5,1.4,0,.3,0,.7-.2,1-.2.4-.3.9-.5,1.3-.3.5-.4,1-.5,1.5,0,.4.2.5.6.5.6,0,1.1-.2,1.6-.6.6-.4,1.1-.9,1.5-1.4.4-.5.7-1,1-1.5l.6.4c-.3.7-.8,1.4-1.3,2-.5.6-1.2,1.2-1.9,1.6-.6.4-1.3.6-2.1.6-.5,0-1-.1-1.4-.5"/>
          <path class="st22" d="M721.7,492.4c-.6-.5-.9-1.3-.8-2.1,0-1.1.4-2.1.9-3,.6-1.1,1.4-2,2.4-2.7.8-.7,1.8-1.1,2.9-1.1.4,0,.9.1,1.2.4.4.3.5.8.5,1.2,0,.8-.3,1.6-.9,2.1-.6.7-1.4,1.3-2.3,1.7-.9.4-1.9.7-2.8.8,0,.2,0,.4,0,.5,0,.4.1.9.3,1.2.3.5.9.7,1.5.6,1.1,0,2.2-.5,3-1.2,1-.8,1.8-1.8,2.4-2.9l.5.4c-.6,1.4-1.5,2.6-2.7,3.5-1,.8-2.3,1.3-3.7,1.3-.9,0-1.7-.2-2.3-.8M725,488.2c.7-.4,1.3-.9,1.8-1.5.4-.5.7-1.1.7-1.7,0-.1,0-.3,0-.4,0,0-.2-.1-.3,0-.6,0-1.1.3-1.5.6-1.2,1-2,2.2-2.5,3.6.7,0,1.3-.3,1.9-.7"/>
          <path class="st22" d="M736,492.6c-.4-.5-.7-1.2-.6-1.9,0-.8.1-1.6.4-2.4.3-1,.6-2.1,1-3.1-.3,0-.6-.1-.8-.2v-.7c.4,0,.8,0,1.1.1.6-1.6,1.4-3.2,2.3-4.6.8-1.3,1.5-1.9,2-1.9.4,0,.7.3.7.7,0,0,0,0,0,0,0,.4-.1.7-.3,1-.2.4-.6,1.1-1.1,2-.7,1.2-1.2,2.2-1.6,3,1.8,0,3.3,0,4.3-.2v.8c-1.9.2-3.5.3-4.8.3-.7,1.5-1.1,3.1-1.2,4.8,0,.5,0,1,.3,1.4.2.3.6.4,1,.4.9,0,1.8-.4,2.4-1,.9-.8,1.7-1.8,2.2-2.9l.3.2c-.6,1.4-1.4,2.6-2.5,3.6-.9.9-2,1.3-3.2,1.4-.6,0-1.3-.2-1.7-.6"/>
          <path class="st22" d="M742.6,492.3c-.3-.5-.5-1-.4-1.6,0-.7.1-1.4.4-2.1.2-.7.6-1.3,1.1-1.8.3-.4.8-.7,1.3-.7.3,0,.5,0,.7.2,0-.7.3-1.3.8-1.8.5-.5,1.1-.7,1.8-.7.5,0,1,.2,1.4.5.3.4.5.9.5,1.4,0,.7-.2,1.3-.4,1.9-.3.7-.7,1.5-1.1,2.1.2.1.4.1.7.1,1.1,0,2.1-.7,2.6-1.8l.4.3c-.3.7-.7,1.3-1.3,1.7-.5.4-1.1.6-1.8.6-.4,0-.8,0-1.2-.2-.6.7-1.2,1.2-1.9,1.7-.6.4-1.3.6-2,.7-.6,0-1.1-.2-1.4-.6M745.9,491.3c.5-.4.9-.8,1.2-1.2-1-.9-1.5-2.2-1.4-3.5-.3.2-.5.5-.7.9-.3.5-.5,1.1-.7,1.6-.2.5-.3,1-.3,1.6,0,.7.3,1.1.8,1.1.4,0,.7-.2,1-.5M748.7,487.5c.2-.5.4-1.1.4-1.7,0-.7-.2-1-.7-1-.2,0-.5.1-.7.3-.2.2-.4.5-.5.8-.2.4-.2.7-.2,1.1,0,.4,0,.8.2,1.2,0,.4.3.8.5,1.1.4-.6.7-1.2,1-1.8"/>
          <path class="st22" d="M757.6,492.3c-.3-.5-.5-1-.4-1.6,0-1.4.6-2.8,1.5-3.9.3-.4.8-.7,1.4-.7.3,0,.5,0,.7.2,0-.7.3-1.3.8-1.8.5-.5,1.1-.7,1.8-.7.5,0,1,.2,1.4.5.3.4.5.9.5,1.4,0,.7-.2,1.3-.4,1.9-.3.7-.7,1.5-1.1,2.1.2.1.4.1.7.1.5,0,1-.2,1.4-.4.5-.3.9-.8,1.2-1.3l.4.3c-.3.7-.7,1.3-1.3,1.7-.5.4-1.1.6-1.7.6-.4,0-.8,0-1.2-.2-.6.7-1.2,1.2-1.9,1.7-.6.4-1.3.6-2,.7-.6,0-1.1-.2-1.4-.6M760.9,491.3c.5-.4.9-.8,1.2-1.2-1-.9-1.5-2.2-1.4-3.5-.3.2-.5.5-.7.9-.3.5-.5,1.1-.7,1.6-.2.5-.3,1-.3,1.6,0,.7.3,1.1.8,1.1.4,0,.7-.2,1-.5M763.7,487.5c.2-.5.4-1.1.4-1.7,0-.7-.2-1-.7-1-.2,0-.5.1-.7.3-.2.2-.4.5-.5.8-.2.4-.2.7-.2,1.1,0,.4,0,.8.2,1.2,0,.4.3.8.5,1.1.4-.6.7-1.2,1-1.8"/>
          <path class="st22" d="M764.4,498.6c-.2-.1-.3-.3-.3-.4.7-2,1.2-3.6,1.5-4.8.3-1.2.6-2.4.8-3.7.2-1.3.5-3.3.8-6,0-.2,0-.3.1-.5,0,0,.2-.1.4-.1.4,0,.8.1,1,.4.2.2.4.6.3.9,0,.8-.2,1.5-.3,2.2.5-.7,1.1-1.4,1.8-1.9.6-.5,1.4-.8,2.1-.8.7,0,1.4.3,1.9.8.5.6.8,1.3.8,2.1,0,.9-.3,1.9-.8,2.7-.5.9-1.2,1.7-2.1,2.4-.9.7-1.9,1-3,1-.4,0-.8,0-1.2-.2-.3-.1-.5-.3-.5-.4s.2-.2.6-.2c.9,0,1.8-.3,2.6-.8.7-.5,1.3-1.1,1.8-1.9.4-.7.6-1.4.7-2.2,0-.4-.1-.9-.3-1.3-.2-.3-.6-.5-1-.5-.6,0-1.1.2-1.5.6-.5.4-1,.9-1.4,1.5-.4.5-.7,1-1,1.6-.3.9-.6,2.3-1,4-.3,1.5-.7,2.9-1.2,4.3-.3.9-.7,1.4-1.1,1.4-.2,0-.4,0-.6-.2"/>
          <path class="st22" d="M776.6,492.4c-.6-.5-.9-1.3-.8-2.1,0-1.1.4-2.1.9-3,.6-1.1,1.4-2,2.4-2.7.8-.7,1.8-1.1,2.9-1.1.4,0,.9.1,1.2.4.4.3.5.8.5,1.2,0,.8-.3,1.6-.9,2.1-.6.7-1.4,1.3-2.3,1.7-.9.4-1.9.7-2.8.8,0,.2,0,.4,0,.5,0,.4.1.9.3,1.2.3.5.9.7,1.5.6,1.1,0,2.2-.5,3-1.2,1-.8,1.8-1.8,2.4-2.9l.5.4c-.6,1.4-1.5,2.6-2.7,3.5-1.1.8-2.3,1.3-3.7,1.3-.9,0-1.7-.2-2.3-.8M779.9,488.2c.7-.4,1.3-.9,1.8-1.5.4-.5.7-1.1.7-1.7,0-.1,0-.3,0-.4,0,0-.2,0-.3,0-.6,0-1.1.3-1.5.6-.6.5-1.1,1-1.5,1.7-.4.6-.8,1.3-1,2,.7,0,1.3-.3,1.9-.7"/>
          <path class="st22" d="M790.9,492.2c-.3-.3-.5-.7-.5-1.2,0-.2,0-.5.1-.7,0-.3.1-.5.2-.8.2-.5.3-1.1.3-1.6,0-.3,0-.5-.2-.7-.2-.1-.4-.2-.6-.2-1,.1-2,.7-2.5,1.6-1,1.3-1.9,2.6-2.8,4-.6,0-1.2-.2-1.5-.7l.2-.6c.8-1.6,1.3-3.3,1.4-5,.2-.2.3-.3.5-.4.2-.1.4-.2.7-.2.2,0,.4,0,.6.2.1.1.2.3.2.5,0,.7-.2,1.4-.4,2.1.6-.9,1.4-1.7,2.2-2.3.6-.5,1.4-.9,2.3-.9.6,0,1.1.2,1.5.6.3.4.5,1,.5,1.6,0,.3,0,.7-.1,1-.1.4-.2.7-.4,1.1-.2.5-.4,1-.4,1.5,0,.2,0,.4.2.5.1.1.2.2.4.2.7,0,1.3-.5,1.7-1.1.7-.8,1.2-1.6,1.7-2.6l.4.3c-.5,1.1-1.1,2.2-1.9,3.1-.6.7-1.5,1.1-2.4,1.1-.5,0-1-.1-1.4-.5"/>
          <path class="st22" d="M795.8,492.2c-.2-.1-.3-.4-.3-.6,0-.3.2-.6.5-.8.3-.2.7-.3,1.1-.4.5,0,.8.2.8.7,0,.3-.2.6-.4.8-.3.3-.6.4-1,.4-.2,0-.5,0-.7-.2M797,489.6c0-.6.1-1.3.4-1.9.2-.7.5-1.6.9-2.6,1.2-3.2,2.3-5.7,3.1-7.4s1.6-2.7,2.2-2.7c.2,0,.4,0,.5.2.1.1.2.3.2.5-.3,1.2-.7,2.4-1.4,3.5-.9,1.9-1.9,3.9-3.1,6-1.2,2.1-2,3.6-2.6,4.4h-.2Z"/>
        </g>

        <rect id="dummy" class="st0" width="1440" height="967.4"/>
        <g id="envelope-half">
          <path id="_7" class="st15" d="M1406.9,845.3c0,27.6-306.2,49.9-683.9,49.9s-683.9-22.3-683.9-49.9,306.2-49.9,683.9-49.9,683.9,22.3,683.9,49.9Z"/>
          <rect id="_6" class="st9" x="396.3" y="364.9" width="646.7" height="474.3"/>
          <g id="_5">
            <polygon id="accent-left-2" class="st23" points="658.5 615.2 663.3 618.4 396.2 797.1 396.2 792.2 658.5 615.2"/>
            <polygon id="accent-right-2" class="st23" points="783 613.6 778.8 616.5 1042.9 802 1042.9 795.9 783 613.6"/>
          </g>
          <polygon id="_4" class="st8" points="718.8 82.2 418.8 288 396.3 357.4 396.3 364.9 1043.1 364.9 1043.1 357.4 1020.5 288 720.6 82.2 719.7 81.5 718.8 82.2"/>
          <g id="_3" class="st24">
            <polygon class="st18" points="1010.5 441.4 1010.5 364.9 429.7 364.9 429.8 442.1 719.6 642 1010.5 441.4"/>
            <polygon class="st16" points="1010.5 441.4 1010.5 364.9 429.7 364.9 429.8 442.1 719.6 642 1010.5 441.4"/>
          </g>
          <g id="_2">
            <polygon class="st7" points="396.3 381.5 418.8 450.9 719.6 657.1 719.6 657 719.6 642 425.7 439.2 396.3 366.5 396.3 381.5"/>
            <polygon class="st6" points="1042.9 381.5 1020.4 450.9 719.6 657.1 719.6 657 719.6 642 1013.5 439.2 1042.9 366.5 1042.9 381.5"/>
          </g>
          <polygon id="_1" class="st18" points="1010.5 358.1 990.5 295.4 721 108.3 720.2 107.8 720.1 107.8 720 107.8 719.1 108.3 449.6 295.4 429.6 358.1 429.7 364.8 720.1 364.8 1010.5 364.8 1010.5 358.1"/>
        </g>
      </g>
    </g>
  </g>
</svg>